<svg xmlns="http://www.w3.org/2000/svg" width="256" height="256" viewBox="0 0 100 100"><rect width="100" height="100" rx="20" fill="#000000"></rect><path fill="#fff" d="M40.55 33.07L40.55 33.07Q41.30 31.87 42.85 31.87L42.85 31.87Q43.45 31.87 43.95 32.17L43.95 32.17Q44.30 37.62 44.30 42.92Q44.30 48.22 44.07 56.37Q43.85 64.52 43.80 66.92L43.80 66.92Q42.60 67.72 41.85 67.72Q41.10 67.72 40.70 67.57L40.70 67.57Q40.40 64.92 40.40 62.17L40.40 62.17L40.70 50.77Q36.40 50.37 31.10 50.37Q25.80 50.37 20.05 51.42L20.05 51.42Q19.65 61.32 19.65 66.02L19.65 66.02Q18.40 67.02 17.62 67.02Q16.85 67.02 16.40 66.77L16.40 66.77Q16.25 64.32 16.25 59.87Q16.25 55.42 16.87 45.15Q17.50 34.87 17.55 33.27L17.55 33.27Q18.20 32.22 19.80 32.22L19.80 32.22Q20.30 32.22 20.75 32.42L20.75 32.42Q20.90 33.82 20.90 35.97Q20.90 38.12 20.60 42.55Q20.30 46.97 20.30 48.67L20.30 48.67Q26.35 47.67 31.50 47.67Q36.65 47.67 40.60 48.02L40.60 48.02Q40.75 46.17 40.75 42.57Q40.75 38.97 40.55 33.07ZM55.95 57.67L55.95 57.67L56.10 65.22Q56.10 66.77 55.40 67.32Q54.70 67.87 54.10 67.87Q53.50 67.87 52.95 67.72L52.95 67.72Q52.30 62.37 52.30 57.27Q52.30 52.17 52.62 45.72Q52.95 39.27 53.00 35.52L53.00 35.52Q53.00 31.52 63.70 31.52L63.70 31.52Q69.35 31.52 74.35 33.87L74.35 33.87Q76.95 35.07 78.60 37.25Q80.25 39.42 80.25 42.10Q80.25 44.77 79.05 46.92Q77.85 49.07 76 50.50Q74.15 51.92 71.75 52.97L71.75 52.97Q67.80 54.77 62.95 55.37L62.95 55.37Q65.35 56.72 70.75 61.87L70.75 61.87Q72.35 63.42 74.80 64.65Q77.25 65.87 79.85 65.87L79.85 65.87Q80.10 65.87 80.90 65.75Q81.70 65.62 82.25 65.57Q82.80 65.52 83.28 65.80Q83.75 66.07 83.75 66.77L83.75 66.77Q83.75 68.47 79.50 68.47L79.50 68.47Q74.55 68.47 69.65 64.67L69.65 64.67Q67.50 63.07 65.45 61.37L65.45 61.37Q60.40 57.12 56 56.02L56 56.02Q55.95 56.47 55.95 57.67ZM76.50 42.72L76.50 42.72Q76.50 38.52 72.72 36.40Q68.95 34.27 63.15 34.27L63.15 34.27Q59.50 34.27 56.35 35.07L56.35 35.07Q56.35 39.02 56.10 43.85Q55.85 48.67 55.85 50.47Q55.85 52.27 55.90 53.12L55.90 53.12Q63.30 52.57 67.35 51.37L67.35 51.37Q71.70 50.12 73.85 48.27L73.85 48.27Q76.50 45.97 76.50 42.72Z"></path></svg>