<svg xmlns="http://www.w3.org/2000/svg" width="256" height="256" viewBox="0 0 100 100"><rect width="100" height="100" rx="20" fill="#44403c"></rect><path d="M36.77 56.84L36.77 56.84Q36.47 56.84 35.64 56.84Q34.81 56.84 33.84 56.84Q32.86 56.84 31.98 56.84Q31.10 56.84 30.81 56.84L30.81 56.84Q29.64 56.64 29.35 56.30Q29.05 55.96 29.05 55.18L29.05 55.18Q29.05 54.39 30.03 53.61Q31.01 52.83 32.32 52.10Q33.64 51.37 34.91 50.63Q36.18 49.90 36.77 49.22L36.77 49.22L36.77 48.14Q36.77 47.46 36.82 46.63Q36.87 45.80 36.87 45.12L36.87 45.12L36.87 40.92Q36.87 39.45 36.72 38.09Q36.57 36.72 36.38 35.25L36.38 35.25Q36.28 34.28 36.08 33.11L36.08 33.11L36.08 33.59Q35.99 34.08 35.69 34.33Q35.40 34.57 34.96 34.67Q34.52 34.77 33.94 34.77L33.94 34.77Q32.76 34.77 31.79 33.94Q30.81 33.11 30.81 31.64L30.81 31.64Q30.81 29.69 32.62 28.03Q34.42 26.37 37.21 24.95Q39.99 23.54 43.46 22.46Q46.92 21.39 50.24 20.65Q53.56 19.92 56.49 19.58Q59.42 19.24 61.08 19.24L61.08 19.24L62.35 19.24Q63.23 19.24 64.26 19.29Q65.28 19.34 66.16 19.34L66.16 19.34L67.43 19.34Q70.95 20.41 70.95 23.83L70.95 23.83L70.95 24.80Q70.95 25.49 70.85 26.17Q70.75 26.86 70.51 27.39Q70.26 27.93 69.68 27.93L69.68 27.93Q69.48 27.93 69.34 27.88Q69.19 27.83 69.09 27.83L69.09 27.83Q68.80 26.66 68.41 25.59L68.41 25.59Q68.02 24.71 67.58 23.88Q67.14 23.05 66.65 22.66L66.65 22.66L65.67 22.66Q64.99 22.66 64.26 22.61Q63.53 22.56 62.84 22.56L62.84 22.56L61.87 22.56Q59.81 22.56 56.64 22.85Q53.47 23.14 50.29 24.02Q47.12 24.90 44.48 26.46Q41.85 28.03 40.97 30.47L40.97 30.47L40.97 31.84Q40.97 32.81 40.97 33.98Q40.97 35.16 40.97 36.13L40.97 36.13L40.97 37.60Q40.97 40.72 40.97 43.85Q40.97 46.97 41.85 50L41.85 50Q42.04 50 42.53 50.05Q43.02 50.10 43.12 50.10L43.12 50.10Q45.75 50.10 48.39 49.51Q51.03 48.93 53.61 48.24Q56.20 47.56 58.84 47.02Q61.47 46.48 64.21 46.48L64.21 46.48Q64.60 46.48 65.58 46.39Q66.55 46.29 67.58 46.44Q68.60 46.58 69.43 46.97Q70.26 47.36 70.26 48.34L70.26 48.34Q70.26 48.44 70.12 48.73Q69.97 49.02 69.97 49.22L69.97 49.22Q69.38 49.22 68.07 49.32Q66.75 49.41 65.28 49.51Q63.82 49.61 62.50 49.76Q61.18 49.90 60.60 50L60.60 50Q60.30 50.10 58.94 50.39Q57.57 50.68 55.96 51.12Q54.35 51.56 52.78 51.95Q51.22 52.34 50.34 52.54L50.34 52.54Q49.85 52.73 48.73 53.08Q47.61 53.42 46.39 53.81Q45.17 54.20 44.09 54.59Q43.02 54.98 42.72 55.08L42.72 55.08Q42.63 55.18 42.33 55.47L42.33 55.47L41.85 55.96L41.85 56.64Q41.85 57.13 41.85 57.67Q41.85 58.20 41.85 58.69L41.85 58.69L41.85 59.38Q41.85 61.23 41.85 63.43Q41.85 65.63 42.09 67.82Q42.33 70.02 42.87 72.02Q43.41 74.02 44.48 75.59L44.48 75.59Q44.48 75.59 44.87 75.88Q45.26 76.17 45.70 76.42Q46.14 76.66 46.53 76.95Q46.92 77.25 47.02 77.34L47.02 77.34L47.02 77.73Q47.02 77.93 47.07 78.08Q47.12 78.22 47.12 78.42L47.12 78.42Q47.12 79.79 46.63 80.27Q46.14 80.76 44.78 80.76L44.78 80.76Q43.12 80.76 42.04 79.35Q40.97 77.93 40.23 75.73Q39.50 73.54 39.16 70.75Q38.82 67.97 38.48 65.33Q38.13 62.70 37.79 60.40Q37.45 58.11 36.77 56.84Z" fill="#fff"></path></svg>