<svg xmlns="http://www.w3.org/2000/svg" width="256" height="256" viewBox="0 0 100 100"><rect width="100" height="100" rx="20" fill="#373b69"></rect><path d="M17.03 57.48L17.03 57.48Q16.26 57.45 15.99 57.01Q15.71 56.56 15.65 55.78Q15.60 54.99 15.71 53.91Q15.81 52.83 15.81 51.56L15.81 51.56Q15.83 49.05 16.00 46.98Q16.16 44.91 16.09 42.95L16.09 42.95Q16.09 42.80 16.09 42.67Q16.09 42.55 16.06 42.42L16.06 42.42Q15.93 42.85 15.77 43.40Q15.60 43.94 15.38 44.60L15.38 44.60Q14.92 46.03 14.47 47.52Q14.03 49.02 13.61 50.43Q13.19 51.84 12.82 53.05Q12.46 54.25 12.18 55.07L12.18 55.07Q11.90 55.88 11.63 56.27Q11.36 56.67 11.10 56.82Q10.83 56.97 10.56 56.94Q10.30 56.92 10.04 56.89L10.04 56.89Q9.94 56.03 9.66 54.86Q9.38 53.69 9.08 52.63L9.08 52.63Q8.72 51.38 8.29 50.09L8.29 50.09Q7.71 47.85 7.07 46.00Q6.44 44.15 6.08 42.95L6.08 42.95Q5.93 44.25 5.85 45.92Q5.78 47.60 5.75 49.28Q5.73 50.95 5.78 52.44Q5.83 53.92 5.93 54.84L5.93 54.84Q5.96 55.22 6.03 55.60L6.03 55.60Q6.08 55.93 6.17 56.27Q6.26 56.61 6.39 56.89L6.39 56.89Q6.26 57.00 6.08 57.07Q5.90 57.15 5.70 57.20L5.70 57.20Q5.47 57.27 5.22 57.33L5.22 57.33Q4.23 57.53 3.78 57.27Q3.34 57.02 3.24 56.26L3.24 56.26Q3.19 55.88 3.16 54.84Q3.14 53.80 3.15 52.44Q3.16 51.08 3.21 49.58Q3.26 48.08 3.37 46.79L3.37 46.79Q3.47 45.75 3.57 44.53L3.57 44.53Q3.67 43.46 3.77 42.07Q3.87 40.67 4.00 39.04L4.00 39.04Q4.08 38.89 4.25 38.78Q4.43 38.66 4.64 38.59L4.64 38.59Q4.86 38.49 5.14 38.43L5.14 38.43Q5.57 38.36 5.90 38.31L5.90 38.31Q6.18 38.26 6.43 38.23Q6.67 38.21 6.62 38.23L6.62 38.23Q6.95 38.92 7.12 39.36Q7.30 39.81 7.49 40.42Q7.68 41.02 7.97 42.01Q8.27 43.00 8.82 44.78L8.82 44.78Q9.59 47.25 10.13 49.07Q10.68 50.90 10.96 51.87L10.96 51.87Q11.14 51.54 11.31 51.14Q11.49 50.75 11.68 50.19Q11.87 49.63 12.09 48.88Q12.30 48.13 12.58 47.09L12.58 47.09Q12.94 45.95 13.32 44.63L13.32 44.63Q13.62 43.51 13.99 42.08Q14.36 40.64 14.69 39.09L14.69 39.09Q15.50 38.76 16.01 38.60Q16.52 38.43 16.80 38.33L16.80 38.33Q17.13 38.23 17.28 38.21L17.28 38.21Q17.43 38.23 17.58 38.36L17.58 38.36Q17.71 38.49 17.89 38.71Q18.07 38.94 18.27 39.40L18.27 39.40Q18.27 39.75 18.27 40.54Q18.27 41.33 18.27 42.36Q18.27 43.39 18.24 44.58Q18.22 45.77 18.21 46.98Q18.19 48.18 18.18 49.33Q18.17 50.47 18.14 51.36L18.14 51.36Q18.09 52.70 18.13 53.64Q18.17 54.58 18.28 55.21Q18.40 55.83 18.59 56.21Q18.78 56.59 19.06 56.82L19.06 56.82Q18.98 56.87 18.77 56.98Q18.55 57.10 18.24 57.21Q17.94 57.33 17.61 57.40Q17.28 57.48 17.03 57.48ZM27.64 50.95L27.64 50.95Q27.59 51.94 27.30 52.78Q27.00 53.62 26.50 54.24Q25.99 54.86 25.29 55.22Q24.59 55.57 23.75 55.60L23.75 55.60Q23.02 55.62 22.37 55.24Q21.72 54.86 21.24 54.18Q20.76 53.49 20.52 52.54Q20.28 51.59 20.38 50.47L20.38 50.47Q20.45 49.17 20.86 48.25Q21.27 47.32 21.72 46.71Q22.18 46.10 22.57 45.81Q22.97 45.52 23.07 45.47L23.07 45.47Q23.25 45.39 23.40 45.43Q23.55 45.47 23.73 45.52L23.73 45.52Q23.78 45.54 23.83 45.65L23.83 45.65Q23.93 45.82 23.96 46.31L23.96 46.31Q24.08 46.03 24.29 45.85Q24.49 45.67 24.69 45.59L24.69 45.59Q24.95 45.49 25.20 45.47L25.20 45.47Q25.38 45.44 25.82 45.75Q26.27 46.05 26.69 46.71Q27.11 47.37 27.41 48.43Q27.72 49.48 27.64 50.95ZM25.91 50.65L25.91 50.65Q25.94 50.04 25.87 49.42Q25.81 48.79 25.67 48.27Q25.53 47.75 25.33 47.44Q25.13 47.12 24.92 47.12L24.92 47.12Q24.69 47.17 24.41 47.35L24.41 47.35Q24.19 47.50 23.91 47.83Q23.63 48.16 23.37 48.77L23.37 48.77Q23.35 48.69 23.32 48.49L23.32 48.49Q23.30 48.31 23.28 48.02Q23.27 47.73 23.32 47.22L23.32 47.22Q22.97 47.65 22.78 48.24Q22.59 48.82 22.49 49.35L22.49 49.35Q22.38 49.99 22.33 50.62L22.33 50.62Q22.31 51.31 22.40 51.97Q22.49 52.63 22.70 53.14Q22.92 53.64 23.22 53.95Q23.53 54.25 23.96 54.23L23.96 54.23Q24.39 54.20 24.72 53.87Q25.05 53.54 25.30 53.03Q25.56 52.53 25.71 51.89Q25.86 51.26 25.91 50.65ZM32.29 54.00L32.29 54.00Q32.51 54.00 32.90 53.19Q33.28 52.37 33.62 51.23Q33.96 50.09 34.18 48.87Q34.39 47.65 34.29 46.81L34.29 46.81Q34.24 46.53 34.15 46.36Q34.06 46.18 33.94 45.98L33.94 45.98Q34.09 45.77 34.32 45.66Q34.55 45.54 34.75 45.49L34.75 45.49Q35.00 45.42 35.26 45.39L35.26 45.39Q35.87 45.37 36.15 45.59L36.15 45.59Q36.30 45.75 36.30 46.31Q36.30 46.86 36.18 47.61Q36.07 48.36 35.88 49.19Q35.69 50.01 35.46 50.70L35.46 50.70Q35.23 51.36 34.90 52.13Q34.57 52.91 34.22 53.61Q33.86 54.30 33.50 54.80Q33.15 55.29 32.90 55.40L32.90 55.40Q32.36 55.60 31.84 55.60Q31.32 55.60 31.19 55.47L31.19 55.47Q31.14 55.42 30.97 55.12Q30.79 54.81 30.57 54.33Q30.36 53.85 30.11 53.20Q29.87 52.55 29.70 51.82L29.70 51.82Q29.52 51.08 29.44 50.22Q29.37 49.35 29.28 48.53Q29.19 47.70 29.04 46.99Q28.88 46.28 28.58 45.82L28.58 45.82L29.77 45.34Q29.92 45.26 30.13 45.20Q30.33 45.14 30.53 45.16Q30.74 45.19 30.90 45.35Q31.07 45.52 31.12 45.92L31.12 45.92Q31.17 46.38 31.21 47.02Q31.24 47.65 31.28 48.34Q31.32 49.02 31.37 49.70Q31.42 50.37 31.47 50.90L31.47 50.90Q31.52 51.46 31.61 52.02Q31.70 52.58 31.82 53.01Q31.93 53.44 32.04 53.72Q32.16 54.00 32.29 54.00ZM37.80 46.33L37.80 46.33Q37.80 46.18 38.20 46.00Q38.61 45.82 39.10 45.71Q39.60 45.59 40.02 45.58Q40.44 45.57 40.44 45.77L40.44 45.77Q40.44 46.15 40.39 46.85Q40.33 47.55 40.26 48.32Q40.18 49.10 40.11 49.87Q40.03 50.65 40.00 51.18L40.00 51.18Q39.95 51.74 39.90 52.40L39.90 52.40Q39.85 52.96 39.83 53.64Q39.80 54.33 39.83 55.04L39.83 55.04Q39.83 55.17 39.57 55.29Q39.32 55.42 39.01 55.48Q38.71 55.55 38.43 55.55Q38.15 55.55 38.13 55.45L38.13 55.45Q38.07 55.34 38.02 55.09Q37.97 54.84 37.92 54.37Q37.87 53.90 37.85 53.15Q37.82 52.40 37.87 51.33L37.87 51.33Q37.97 49.23 37.90 48.07Q37.82 46.92 37.80 46.33ZM39.57 41.28L39.57 41.28Q40.08 41.28 40.54 41.58Q40.99 41.89 40.99 42.40L40.99 42.40Q40.99 42.78 40.80 43.13Q40.61 43.49 40.33 43.77Q40.06 44.05 39.70 44.21Q39.34 44.38 39.04 44.38L39.04 44.38Q38.63 44.38 38.38 44.24Q38.13 44.10 37.99 43.91Q37.85 43.72 37.80 43.49Q37.74 43.26 37.74 43.06L37.74 43.06Q37.74 42.80 37.82 42.48Q37.90 42.17 38.10 41.90Q38.30 41.63 38.66 41.46Q39.01 41.28 39.57 41.28ZM38.94 43.64L38.94 43.64Q39.09 43.64 39.28 43.53Q39.47 43.41 39.64 43.26Q39.80 43.11 39.92 42.93Q40.03 42.75 40.03 42.62L40.03 42.62Q40.03 42.42 39.83 42.42L39.83 42.42Q39.70 42.42 39.51 42.52Q39.32 42.62 39.14 42.76Q38.96 42.90 38.85 43.07Q38.74 43.23 38.74 43.39L38.74 43.39Q38.74 43.64 38.94 43.64ZM45.59 55.60L45.59 55.60Q43.81 55.60 42.85 54.41Q41.88 53.21 41.88 51.28L41.88 51.28Q41.88 49.94 42.28 48.76Q42.67 47.58 43.33 46.71Q43.99 45.85 44.87 45.35Q45.74 44.86 46.71 44.86L46.71 44.86Q47.65 44.86 48.31 45.53Q48.97 46.20 48.97 47.45L48.97 47.45Q48.97 48.26 48.61 49.06Q48.26 49.86 47.69 50.48Q47.11 51.10 46.43 51.49Q45.74 51.87 45.11 51.87L45.11 51.87Q44.70 51.87 44.42 51.76Q44.14 51.66 43.91 51.46L43.91 51.46Q43.99 52.91 44.55 53.48Q45.11 54.05 46.00 54.05L46.00 54.05Q46.61 54.05 47.08 53.80Q47.55 53.54 47.88 53.21Q48.21 52.88 48.41 52.54Q48.61 52.20 48.69 52.02L48.69 52.02Q48.76 51.87 48.95 51.87Q49.15 51.87 49.15 52.17L49.15 52.17Q49.15 52.45 48.95 53.02Q48.76 53.59 48.33 54.16Q47.90 54.74 47.23 55.17Q46.56 55.60 45.59 55.60ZM46.76 45.95L46.76 45.95Q46.61 45.95 46.19 46.27Q45.77 46.58 45.30 47.19Q44.83 47.80 44.44 48.65Q44.04 49.50 43.94 50.57L43.94 50.57Q45.46 50.22 46.35 49.45Q47.24 48.69 47.24 47.22L47.24 47.22Q47.24 46.48 47.06 46.22Q46.89 45.95 46.76 45.95ZM54.63 50.50L54.63 50.50Q55.19 50.70 55.70 50.88Q56.20 51.05 56.58 51.31Q56.97 51.56 57.19 51.90Q57.42 52.25 57.42 52.75L57.42 52.75Q57.42 53.36 57.16 53.90Q56.89 54.43 56.38 54.84Q55.87 55.24 55.15 55.48Q54.43 55.73 53.54 55.73L53.54 55.73Q52.55 55.73 51.94 55.54Q51.33 55.34 51.00 55.09Q50.67 54.84 50.57 54.58Q50.47 54.33 50.47 54.18L50.47 54.18Q50.47 53.87 50.59 53.50Q50.72 53.14 51.07 52.70L51.07 52.70Q51.23 52.53 51.40 52.37L51.40 52.37Q51.76 52.07 52.12 51.99L52.12 51.99Q52.07 52.58 52.26 52.95Q52.45 53.31 52.76 53.52Q53.08 53.72 53.47 53.80Q53.87 53.87 54.22 53.87L54.22 53.87Q54.58 53.87 54.95 53.77Q55.32 53.67 55.62 53.50Q55.92 53.34 56.11 53.12Q56.31 52.91 56.31 52.65L56.31 52.65Q56.31 52.37 56.08 52.20Q55.85 52.02 55.51 51.90Q55.16 51.79 54.77 51.73Q54.38 51.66 54.02 51.59L54.02 51.59Q53.66 51.51 53.07 51.37Q52.47 51.23 51.90 50.93Q51.33 50.62 50.91 50.11Q50.49 49.61 50.49 48.77L50.49 48.77Q50.49 47.80 50.99 47.08Q51.48 46.36 52.20 45.86Q52.93 45.37 53.74 45.11Q54.55 44.86 55.19 44.86L55.19 44.86Q55.52 44.86 55.90 44.95Q56.28 45.04 56.61 45.25Q56.94 45.47 57.16 45.82Q57.37 46.18 57.37 46.74L57.37 46.74Q57.37 47.30 57.28 47.64Q57.19 47.98 57.03 48.17Q56.86 48.36 56.64 48.41Q56.41 48.46 56.10 48.46L56.10 48.46Q55.90 48.46 55.72 48.41L55.72 48.41Q55.57 48.36 55.39 48.31Q55.21 48.26 55.06 48.13L55.06 48.13Q55.32 47.83 55.45 47.55Q55.59 47.27 55.59 46.86L55.59 46.86Q55.59 46.51 55.40 46.23Q55.21 45.95 54.78 45.95L54.78 45.95Q54.32 45.95 53.91 46.13Q53.49 46.31 53.17 46.61Q52.85 46.92 52.66 47.31Q52.47 47.70 52.47 48.16L52.47 48.16Q52.47 48.84 52.99 49.45Q53.51 50.06 54.63 50.50ZM77.94 56.56L77.94 56.56Q77.68 56.92 77.35 57.11Q77.02 57.30 76.72 57.38L76.72 57.38Q76.36 57.48 75.96 57.45L75.96 57.45Q75.81 57.45 75.63 57.38L75.63 57.38Q75.48 57.33 75.30 57.24Q75.12 57.15 74.99 56.97L74.99 56.97Q74.64 55.70 74.36 54.51Q74.08 53.31 73.88 52.37L73.88 52.37Q73.62 51.28 73.44 50.32L73.44 50.32Q72.76 50.29 71.40 50.30Q70.04 50.32 68.47 50.47L68.47 50.47Q67.99 51.99 67.71 53.03Q67.43 54.08 67.30 54.76Q67.17 55.45 67.20 55.89Q67.22 56.33 67.35 56.67L67.35 56.67Q66.99 57.02 66.65 57.19Q66.31 57.35 66.03 57.40L66.03 57.40Q65.70 57.48 65.40 57.45L65.40 57.45Q64.99 57.40 64.74 57.31Q64.48 57.22 64.37 57.03Q64.25 56.84 64.29 56.49Q64.33 56.13 64.48 55.55L64.48 55.55Q64.63 55.04 65.05 53.73Q65.47 52.42 66.00 50.75L66.00 50.75Q65.04 50.83 64.52 50.65Q64.00 50.47 63.80 49.68L63.80 49.68Q64.20 49.56 64.67 49.44Q65.14 49.33 65.57 49.23L65.57 49.23Q66.06 49.12 66.56 49.05L66.56 49.05Q67.10 47.37 67.65 45.75Q68.21 44.12 68.70 42.83L68.70 42.83L70.17 38.89Q70.22 38.74 70.70 38.56Q71.18 38.38 71.77 38.27Q72.35 38.16 72.89 38.16Q73.42 38.16 73.57 38.38L73.57 38.38Q73.65 38.92 73.79 39.70Q73.93 40.49 74.05 41.23L74.05 41.23Q74.21 42.09 74.41 43.00L74.41 43.00Q74.64 44.27 74.90 45.82Q75.17 47.37 75.58 49.12Q75.98 50.88 76.54 52.75Q77.10 54.63 77.94 56.56ZM70.88 48.62L70.88 48.62Q71.69 48.59 72.23 48.59Q72.76 48.59 73.14 48.62L73.14 48.62L73.06 48.24Q72.91 47.30 72.75 46.23Q72.58 45.16 72.42 44.12Q72.25 43.08 72.10 42.14Q71.95 41.20 71.84 40.49L71.84 40.49Q71.59 41.15 71.26 42.08Q70.93 43.00 70.55 44.10Q70.17 45.19 69.78 46.38Q69.38 47.58 69.00 48.74L69.00 48.74Q69.46 48.69 69.91 48.67Q70.37 48.64 70.88 48.62ZM83.83 45.26L83.83 45.26Q84.54 45.26 85.15 45.67Q85.76 46.08 86.19 46.74Q86.62 47.40 86.88 48.25Q87.13 49.10 87.13 50.01L87.13 50.01Q87.13 50.93 86.93 51.94Q86.72 52.96 86.29 53.82Q85.86 54.68 85.17 55.26Q84.49 55.83 83.50 55.83L83.50 55.83Q82.71 55.83 82.01 55.26Q81.32 54.68 80.93 53.82L80.93 53.82Q80.88 54.71 80.71 55.64Q80.53 56.56 80.53 57.86L80.53 57.86Q80.53 58.24 80.55 58.72Q80.58 59.20 80.63 59.69Q80.68 60.17 80.78 60.58Q80.88 60.98 81.01 61.21L81.01 61.21Q80.58 61.46 80.24 61.59Q79.89 61.72 79.64 61.77L79.64 61.77Q79.36 61.84 79.11 61.84L79.11 61.84Q78.78 61.84 78.67 61.57Q78.57 61.29 78.57 60.58L78.57 60.58Q78.57 60.12 78.61 59.27Q78.65 58.42 78.71 57.33Q78.78 56.23 78.84 55.03Q78.90 53.82 78.97 52.65Q79.03 51.49 79.07 50.48Q79.11 49.48 79.11 48.79L79.11 48.79Q79.11 47.96 79.08 47.49Q79.06 47.02 79.02 46.78Q78.98 46.53 78.93 46.43Q78.88 46.33 78.80 46.20L78.80 46.20Q79.03 46.03 79.35 45.89Q79.66 45.75 79.98 45.68Q80.30 45.62 80.57 45.65Q80.83 45.67 80.99 45.77L80.99 45.77Q81.11 45.90 81.18 46.15Q81.24 46.41 81.29 46.92L81.29 46.92Q81.77 46.25 82.39 45.76Q83.02 45.26 83.83 45.26ZM82.84 54.33L82.84 54.33Q83.30 54.33 83.71 53.90Q84.13 53.47 84.45 52.79Q84.77 52.12 84.96 51.29Q85.15 50.47 85.15 49.66L85.15 49.66Q85.15 48.77 84.98 48.20Q84.82 47.63 84.58 47.28Q84.34 46.94 84.07 46.80Q83.80 46.66 83.60 46.66L83.60 46.66Q83.12 46.66 82.69 47.05Q82.25 47.45 81.92 48.07Q81.59 48.69 81.40 49.45Q81.21 50.22 81.21 50.98L81.21 50.98Q81.21 51.69 81.35 52.30Q81.49 52.91 81.72 53.36Q81.95 53.82 82.24 54.08Q82.53 54.33 82.84 54.33ZM93.55 45.26L93.55 45.26Q94.26 45.26 94.87 45.67Q95.48 46.08 95.91 46.74Q96.35 47.40 96.60 48.25Q96.85 49.10 96.85 50.01L96.85 50.01Q96.85 50.93 96.65 51.94Q96.45 52.96 96.02 53.82Q95.58 54.68 94.90 55.26Q94.21 55.83 93.22 55.83L93.22 55.83Q92.44 55.83 91.74 55.26Q91.04 54.68 90.66 53.82L90.66 53.82Q90.61 54.71 90.43 55.64Q90.25 56.56 90.25 57.86L90.25 57.86Q90.25 58.24 90.28 58.72Q90.30 59.20 90.35 59.69Q90.40 60.17 90.51 60.58Q90.61 60.98 90.74 61.21L90.74 61.21Q90.30 61.46 89.96 61.59Q89.62 61.72 89.36 61.77L89.36 61.77Q89.08 61.84 88.83 61.84L88.83 61.84Q88.50 61.84 88.40 61.57Q88.30 61.29 88.30 60.58L88.30 60.58Q88.30 60.12 88.34 59.27Q88.37 58.42 88.44 57.33Q88.50 56.23 88.56 55.03Q88.63 53.82 88.69 52.65Q88.75 51.49 88.79 50.48Q88.83 49.48 88.83 48.79L88.83 48.79Q88.83 47.96 88.81 47.49Q88.78 47.02 88.74 46.78Q88.70 46.53 88.65 46.43Q88.60 46.33 88.53 46.20L88.53 46.20Q88.75 46.03 89.07 45.89Q89.39 45.75 89.71 45.68Q90.02 45.62 90.29 45.65Q90.56 45.67 90.71 45.77L90.71 45.77Q90.84 45.90 90.90 46.15Q90.96 46.41 91.01 46.92L91.01 46.92Q91.50 46.25 92.12 45.76Q92.74 45.26 93.55 45.26ZM92.56 54.33L92.56 54.33Q93.02 54.33 93.44 53.90Q93.86 53.47 94.18 52.79Q94.49 52.12 94.68 51.29Q94.87 50.47 94.87 49.66L94.87 49.66Q94.87 48.77 94.71 48.20Q94.54 47.63 94.30 47.28Q94.06 46.94 93.79 46.80Q93.53 46.66 93.32 46.66L93.32 46.66Q92.84 46.66 92.41 47.05Q91.98 47.45 91.65 48.07Q91.32 48.69 91.13 49.45Q90.94 50.22 90.94 50.98L90.94 50.98Q90.94 51.69 91.08 52.30Q91.22 52.91 91.45 53.36Q91.67 53.82 91.97 54.08Q92.26 54.33 92.56 54.33Z" fill="#fff"></path></svg>